<svg width="292" height="27" fill="none" xmlns="http://www.w3.org/2000/svg"><path d="M.35 19.7H.5c.14 0 .27-.06.39-.18s.22-.26.3-.42c.1-.16.17-.33.21-.51.04-.2.06-.38.06-.54V2.09c0-.14-.02-.3-.06-.48a1.62 1.62 0 00-.21-.51A1 1 0 00.86.68.58.58 0 00.44.5H.29V.2h4.92c1.86 0 3.31.41 4.35 1.23a3.93 3.93 0 011.59 3.27c0 .58-.1 1.1-.3 1.56a5.42 5.42 0 01-2.79 2.76 5 5 0 013.45 2.13c.36.48.61 1 .75 1.56s.21 1.11.21 1.65A5.6 5.6 0 0111.9 17c-.38.7-.89 1.28-1.53 1.74-.62.44-1.34.76-2.16.96-.8.2-1.63.3-2.49.3H.35v-.3zm10.08-5.16a5.54 5.54 0 00-1.56-3.57c-.88-.84-2.12-1.26-3.72-1.26H3.47v9.3h1.74c1.62 0 2.89-.36 3.81-1.08a3.68 3.68 0 001.41-3.06v-.33zM9.2 4.97a3.8 3.8 0 00-1.23-2.76 4.26 4.26 0 00-3-1.02h-1.5v7.56h1.56a5.3 5.3 0 002.04-.33 2.99 2.99 0 001.95-2.01c.12-.42.18-.83.18-1.23v-.21zm13.75 4.62c-.24-.4-.5-.65-.75-.75a2.5 2.5 0 00-.9-.15c-.22 0-.46.05-.72.15-.24.1-.48.23-.72.39a8.44 8.44 0 00-1.3 1.05v7.8a2.85 2.85 0 00.24 1.05c.1.16.2.3.3.42.13.1.27.15.43.15v.3h-3.9v-.3a.6.6 0 00.39-.15c.12-.12.22-.26.3-.42a2.01 2.01 0 00.27-1.05V9.71c0-.28-.1-.56-.27-.84a1.22 1.22 0 00-.78-.54v-.24l3.03-.9v1.8a8.52 8.52 0 011.23-1.2 3.3 3.3 0 012.97-.42c.44.12.8.25 1.08.39l-.9 1.83zm9.69 10.62c-1 0-1.9-.16-2.7-.48a6.74 6.74 0 01-2.07-1.35 6.4 6.4 0 01-1.77-4.59c0-.98.17-1.87.5-2.67a6.16 6.16 0 013.55-3.45 7.28 7.28 0 012.67-.48c.96 0 1.84.16 2.64.48a5.95 5.95 0 013.9 5.82c0 .86-.15 1.7-.45 2.52a6.26 6.26 0 01-3.39 3.63c-.82.38-1.78.57-2.88.57zm-.18-12.03a4.3 4.3 0 00-3.3 1.74 5.58 5.58 0 00-1.11 3.54c0 .74.1 1.46.33 2.16.24.68.57 1.29.99 1.83.44.54.96.97 1.56 1.29.6.32 1.27.48 2 .48.75 0 1.4-.16 1.96-.48a4.53 4.53 0 002.28-2.97 6.4 6.4 0 00-.93-5.73 4.73 4.73 0 00-1.6-1.35 4.49 4.49 0 00-2.18-.51zm16.48 12.03c-1 0-1.9-.16-2.7-.48a6.74 6.74 0 01-2.07-1.35 6.4 6.4 0 01-1.77-4.59c0-.98.17-1.87.5-2.67a6.16 6.16 0 013.55-3.45 7.28 7.28 0 012.67-.48c.96 0 1.84.16 2.64.48a5.95 5.95 0 013.9 5.82c0 .86-.15 1.7-.45 2.52a6.26 6.26 0 01-3.39 3.63c-.82.38-1.78.57-2.88.57zm-.18-12.03a4.3 4.3 0 00-3.3 1.74 5.58 5.58 0 00-1.11 3.54c0 .74.1 1.46.33 2.16.24.68.57 1.29.99 1.83.44.54.96.97 1.56 1.29.6.32 1.27.48 2 .48.75 0 1.4-.16 1.96-.48a4.53 4.53 0 002.28-2.97 6.4 6.4 0 00-.93-5.73 4.73 4.73 0 00-1.6-1.35 4.49 4.49 0 00-2.18-.51zM68.93 20c-.34 0-.66-.07-.96-.21a5.46 5.46 0 01-1.47-1.23l-3.87-4.98-.63.63v3.9a2.85 2.85 0 00.24 1.02c.1.16.21.3.33.42.12.1.26.15.42.15v.3h-3.9v-.3a.6.6 0 00.4-.15c.11-.12.21-.26.3-.42a2.2 2.2 0 00.23-1.02V2.84c0-.28-.09-.56-.27-.84a.9.9 0 00-.72-.45v-.3L62 .32v12.51l4.86-4.56a.5.5 0 00.15-.36c0-.14-.07-.21-.2-.21v-.3h2.7v.3a1 1 0 00-.4.09l-.36.21c-.14.08-.28.18-.42.3l-4.26 3.96 4.44 5.61a7.64 7.64 0 001.47 1.56c.26.18.48.27.66.27v.3h-1.7zm4.53 0v-.3c.16 0 .3-.06.42-.18s.22-.26.3-.42c.1-.16.17-.33.21-.51.04-.2.06-.38.06-.54V2.69c0-.34-.05-.66-.15-.96-.1-.3-.4-.46-.9-.48v-.3l3.03-.93v18.03a2.2 2.2 0 00.24 1.05c.1.16.2.3.3.42.12.12.26.18.42.18v.3h-3.93zm12.22 4.29c-.28.84-.64 1.41-1.08 1.71-.42.3-.86.45-1.32.45-.3 0-.57-.04-.8-.12a2.8 2.8 0 01-1-.6.73.73 0 01-.18-.24l1-2.43c.1.36.2.63.3.81.1.2.23.38.41.54.18.16.4.24.66.24.48 0 .86-.35 1.14-1.05l1.47-3.69-4.83-10.92a3.8 3.8 0 00-.5-.81A1.06 1.06 0 0080 7.7v-.3h3.96v.3c-.08 0-.18.07-.3.21a.8.8 0 00-.18.54c0 .18.04.34.12.48l3.7 8.49 3.53-8.67a1 1 0 00.1-.39.6.6 0 00-.22-.48.54.54 0 00-.39-.18v-.3h2.91v.3c-.32 0-.6.14-.84.42-.22.26-.4.56-.54.9l-6.18 15.27zm22.07-6.24a2.2 2.2 0 00.24 1.05c.1.16.2.3.3.42.12.12.26.18.42.18v.3h-3.87v-.3c.14 0 .27-.06.4-.18a2.25 2.25 0 00.5-.93c.04-.2.06-.38.06-.54v-5.58c0-.72-.1-1.35-.3-1.89-.2-.54-.47-.99-.8-1.35a3.01 3.01 0 00-1.18-.78 3.25 3.25 0 00-2.6 0c-.43.18-.8.42-1.15.72-.32.28-.59.62-.8 1.02-.2.38-.3.78-.3 1.2v6.66a2.2 2.2 0 00.24 1.05c.1.16.2.3.3.42.11.12.25.18.41.18v.3h-3.9v-.3c.14 0 .27-.06.4-.18a2.25 2.25 0 00.5-.93c.04-.2.06-.38.06-.54V9.77c0-.34-.05-.66-.15-.96-.1-.32-.39-.49-.87-.51v-.27l3-.96v1.65c.14-.16.32-.33.54-.51a4.35 4.35 0 011.86-.96c.42-.12.91-.18 1.47-.18.94 0 1.74.16 2.4.48a4.65 4.65 0 012.52 2.94c.2.6.3 1.19.3 1.77v5.79zM120.62.2h4.26c2.22 0 3.9.43 5.04 1.29a4.18 4.18 0 011.74 3.6c0 .84-.2 1.59-.6 2.25-.4.66-.93 1.22-1.59 1.68a8.32 8.32 0 01-4.59 1.38h-1.14v7.65a2.2 2.2 0 00.24 1.05c.1.16.2.3.3.42.12.12.26.18.42.18h.15v.3h-4.23v-.3h.15c.14 0 .27-.06.4-.18.11-.12.21-.26.3-.42a2.2 2.2 0 00.23-1.05V2.06c0-.28-.08-.6-.24-.96-.16-.36-.39-.56-.69-.6h-.15V.2zm3.12 1.05v8.1h.9c.8 0 1.51-.11 2.13-.33a4.82 4.82 0 001.6-.87c.41-.36.73-.77.95-1.23.22-.46.33-.93.33-1.41 0-.58-.1-1.12-.3-1.62a3.1 3.1 0 00-.93-1.35c-.42-.4-.98-.71-1.68-.93a8.02 8.02 0 00-2.58-.36h-.42zm22.96 16.8c0 .14.02.31.06.51l.15.54c.08.16.18.3.3.42s.26.18.42.18v.3h-2.91v-1.65c-.3.44-.74.87-1.32 1.29-.58.42-1.33.63-2.25.63-1.16 0-2.08-.2-2.76-.6-.68-.4-1.2-.91-1.56-1.53a5.46 5.46 0 01-.7-2.01c-.1-.74-.14-1.43-.14-2.07V9.77c0-.18-.01-.35-.03-.51a.95.95 0 00-.12-.48.68.68 0 00-.3-.33c-.14-.1-.34-.15-.6-.15v-.27l3.03-.96v7.65c0 1.52.33 2.64.99 3.36a3.17 3.17 0 004.86-.09c.3-.32.52-.65.66-.99.16-.34.24-.62.24-.84V9.77c0-.18-.01-.35-.03-.51a.95.95 0 00-.12-.48.68.68 0 00-.3-.33c-.14-.1-.34-.15-.6-.15v-.27l3.03-.96v10.98zm10.87-10.86c1.08 0 2 .18 2.79.54a5.63 5.63 0 013.15 3.51 7.18 7.18 0 01-.01 4.77 6.43 6.43 0 01-1.2 2.13 5.85 5.85 0 01-4.64 2.07 4.57 4.57 0 01-3.54-1.59V20h-2.94v-.3c.14 0 .27-.06.39-.18s.22-.26.3-.42a2.22 2.22 0 00.27-1.05V2.75c0-.34-.05-.66-.15-.96-.1-.3-.4-.46-.87-.48v-.3l3-.93v8.58a5 5 0 013.45-1.47zm.3 12a4.13 4.13 0 001.86-.51 4.68 4.68 0 002.07-2.82 7.4 7.4 0 00-.03-3.99c-.2-.68-.5-1.29-.9-1.83a4.25 4.25 0 00-3.42-1.8 3.62 3.62 0 00-3.06 2.16 3.4 3.4 0 00-.27 1.35v3.72a3.57 3.57 0 001.2 2.73c.36.32.76.57 1.2.75.46.16.9.24 1.35.24zm9.4.81v-.3a.6.6 0 00.43-.18c.12-.12.22-.26.3-.42a2.22 2.22 0 00.27-1.05V2.69c0-.34-.05-.66-.15-.96-.1-.3-.4-.46-.9-.48v-.3l3.03-.93v18.03a2.2 2.2 0 00.24 1.05c.1.16.2.3.3.42.12.12.26.18.42.18v.3h-3.93zm7.85 0v-.3c.16 0 .3-.06.42-.18s.22-.26.3-.42a2.2 2.2 0 00.24-1.05V9.74c0-.34-.05-.66-.15-.96-.1-.32-.39-.49-.87-.51V8l3-.96v11.01a2.2 2.2 0 00.24 1.05c.08.16.18.3.3.42s.26.18.42.18v.3h-3.9zm.15-15.84a1.41 1.41 0 012.43-1.02c.28.28.42.62.42 1.02s-.14.73-.42.99c-.28.26-.62.39-1.02.39s-.74-.13-1.02-.39a1.34 1.34 0 01-.39-.99zm18.63 14.76a.9.9 0 00-.45.12l-.48.24c-.34.2-.77.41-1.29.63-.52.2-1.2.3-2.04.3a7.32 7.32 0 01-5.1-1.86 6.85 6.85 0 01-1.47-2.07 6.8 6.8 0 01-.06-5.04 6.5 6.5 0 013.48-3.51 7.47 7.47 0 014.71-.27 9.98 9.98 0 011.68.72c.18.06.36.09.54.09v2.28h-.3c-.1-.38-.28-.71-.54-.99a3.6 3.6 0 00-.9-.75 4.82 4.82 0 00-2.28-.6 4.9 4.9 0 00-3.69 1.59c-.4.46-.7.99-.9 1.59-.2.6-.3 1.22-.3 1.86 0 .74.12 1.47.36 2.19a5.38 5.38 0 002.67 3.24c.64.34 1.36.51 2.16.51a4.63 4.63 0 002.73-.87c.34-.26.61-.54.81-.84.2-.32.32-.62.36-.9h.3v2.34zm11 .78h.14c.16 0 .3-.05.42-.15.12-.12.22-.26.3-.42.1-.16.17-.33.21-.51.06-.18.1-.35.1-.51V2.06c0-.14-.04-.3-.1-.48a1.62 1.62 0 00-.2-.51 1.2 1.2 0 00-.3-.39.58.58 0 00-.43-.18h-.15V.2h4.32v.3h-.15c-.16 0-.3.06-.42.18-.12.1-.22.23-.3.39a2.24 2.24 0 00-.27.99v16.83h6.57c.38 0 .71-.09 1-.27a2.68 2.68 0 001.11-1.53c.1-.32.14-.61.14-.87h.3V20h-12.3v-.3zm14.96.3v-.3c.16 0 .3-.06.42-.18s.22-.26.3-.42a2.2 2.2 0 00.24-1.05V9.74c0-.34-.05-.66-.15-.96-.1-.32-.4-.49-.87-.51V8l3-.96v11.01a2.2 2.2 0 00.24 1.05c.08.16.18.3.3.42s.26.18.42.18v.3h-3.9zM220 4.16c0-.4.13-.74.39-1.02.28-.28.62-.42 1.02-.42s.74.14 1.02.42c.28.28.42.62.42 1.02s-.14.73-.42.99c-.28.26-.62.39-1.02.39s-.74-.13-1.02-.39a1.34 1.34 0 01-.4-.99zm13.98 3.03c1.08 0 2 .18 2.79.54a5.63 5.63 0 013.15 3.51 7.18 7.18 0 01-.01 4.77 6.43 6.43 0 01-1.2 2.13 5.85 5.85 0 01-4.64 2.07 4.57 4.57 0 01-3.54-1.59V20h-2.94v-.3c.14 0 .27-.06.39-.18s.22-.26.3-.42a2.22 2.22 0 00.27-1.05V2.75c0-.34-.05-.66-.15-.96-.1-.3-.4-.46-.87-.48v-.3l3-.93v8.58a5 5 0 013.45-1.47zm.3 12a4.13 4.13 0 001.86-.51 4.68 4.68 0 002.07-2.82 7.4 7.4 0 00-.03-3.99c-.2-.68-.5-1.29-.9-1.83a4.25 4.25 0 00-3.42-1.8 3.62 3.62 0 00-3.06 2.16 3.4 3.4 0 00-.27 1.35v3.72a3.57 3.57 0 001.2 2.73c.36.32.76.57 1.2.75.46.16.9.24 1.35.24zm16.6-9.6c-.23-.4-.48-.65-.74-.75a2.5 2.5 0 00-.9-.15c-.22 0-.46.05-.72.15-.24.1-.48.23-.72.39a8.44 8.44 0 00-1.3 1.05v7.8a2.85 2.85 0 00.24 1.05c.1.16.2.3.3.42.13.1.27.15.43.15v.3h-3.9v-.3a.6.6 0 00.39-.15c.12-.12.22-.26.3-.42a2.01 2.01 0 00.27-1.05V9.71c0-.28-.1-.56-.27-.84a1.22 1.22 0 00-.78-.54v-.24l3.03-.9v1.8a8.52 8.52 0 011.23-1.2 3.3 3.3 0 012.97-.42c.44.12.8.25 1.08.39l-.9 1.83zM262.2 20v-1.53l-.15.15a5.44 5.44 0 01-4.08 1.59c-.7 0-1.3-.08-1.8-.24-.5-.16-.9-.38-1.23-.66-.32-.3-.56-.64-.72-1.02a3.44 3.44 0 01-.2-1.2c0-.68.17-1.28.53-1.8.38-.52.92-.98 1.62-1.38.7-.4 1.55-.76 2.55-1.08a45.4 45.4 0 013.48-.99 4.16 4.16 0 00-.48-1.89 3.37 3.37 0 00-2.19-1.65c-.42-.1-.78-.15-1.08-.15-.52 0-.98.08-1.38.24a3.8 3.8 0 00-1.74 1.44c-.2.28-.36.55-.48.81h-.27V8.45c.16-.02.31-.07.45-.15.14-.08.31-.16.51-.24l1.23-.51a5.36 5.36 0 012.2-.36c1.1 0 1.98.14 2.66.42.68.28 1.2.65 1.56 1.11.38.46.63.99.75 1.59.12.58.18 1.18.18 1.8v5.94c0 .4.1.78.27 1.14.18.34.42.51.72.51v.3h-2.9zm0-2.85v-4.29l-.3.06-1.77.48c-.68.2-1.33.46-1.95.78-.62.32-1.15.7-1.59 1.14a2.1 2.1 0 00-.66 1.53c0 .64.26 1.17.78 1.59.52.42 1.2.63 2.04.63a3.5 3.5 0 001.74-.42c.5-.3.96-.68 1.38-1.14l.33-.36zm13.72-7.56c-.25-.4-.5-.65-.75-.75a2.5 2.5 0 00-.9-.15c-.22 0-.46.05-.72.15-.25.1-.49.23-.73.39a8.44 8.44 0 00-1.28 1.05v7.8a2.85 2.85 0 00.24 1.05c.1.16.2.3.3.42.12.1.25.15.42.15v.3h-3.9v-.3a.6.6 0 00.38-.15c.13-.12.22-.26.3-.42a2.01 2.01 0 00.28-1.05V9.71c0-.28-.1-.56-.27-.84a1.22 1.22 0 00-.79-.54v-.24l3.04-.9v1.8a8.52 8.52 0 011.22-1.2 3.3 3.3 0 012.98-.42c.44.12.8.25 1.07.39l-.9 1.83zm8.18 14.7c-.28.84-.64 1.41-1.08 1.71-.42.3-.86.45-1.32.45-.3 0-.57-.04-.8-.12a2.8 2.8 0 01-1-.6.73.73 0 01-.18-.24l1-2.43c.1.36.2.63.3.81.1.2.23.38.41.54.18.16.4.24.66.24.48 0 .86-.35 1.14-1.05l1.47-3.69-4.83-10.92a3.8 3.8 0 00-.5-.81 1.06 1.06 0 00-.94-.48v-.3h3.96v.3c-.08 0-.18.07-.3.21a.8.8 0 00-.18.54c0 .18.04.34.12.48l3.7 8.49 3.53-8.67a1 1 0 00.1-.39.6.6 0 00-.22-.48.54.54 0 00-.39-.18v-.3h2.91v.3c-.32 0-.6.14-.84.42-.22.26-.4.56-.54.9l-6.18 15.27z" fill="#fff"/></svg>