<svg>
    <symbol id="profile-icon" viewBox="0 0 28 28" xmlns="http://www.w3.org/2000/svg">
        <path fill-rule="evenodd" clip-rule="evenodd" d="M28 14a14 14 0 11-28 0 14 14 0 0128 0zm-9.33-6.22a4.67 4.67 0 11-9.34 0 4.67 4.67 0 019.34 0zm.83 8.5a7.78 7.78 0 012.28 5.5H6.22a7.78 7.78 0 0113.28-5.5z" />
    </symbol>

    <symbol id="twitter" width="24" height="24" viewBox="0 0 24 24" xmlns="http://www.w3.org/2000/svg">
        <path d="M23 3.95a1 1 0 00-1.52-.86c-.58.35-1.21.62-1.87.8A5.23 5.23 0 0011 7.7 11.03 11.03 0 014.2 3.78a1.01 1.01 0 00-1.32-.21 1 1 0 00-.33.35 5.28 5.28 0 00-.24 4.76 1.04 1.04 0 00-.5.9 5.19 5.19 0 001.6 3.75 1 1 0 00-.07.77 5.2 5.2 0 002.37 2.92c-1.15.44-2.38.6-3.6.45a1 1 0 00-.66 1.83 12.94 12.94 0 007.01 2.06A12.79 12.79 0 0020.92 12c.36-1.19.54-2.41.54-3.65v-.2a5.77 5.77 0 001.53-4.2zm-3.32 3.21a1 1 0 00-.23.7l.01.5c0 1.04-.16 2.07-.45 3.07a10.68 10.68 0 01-10.55 7.93c-.86 0-1.72-.1-2.55-.3a9.48 9.48 0 002.94-1.56 1 1 0 00-.6-1.79 3.2 3.2 0 01-2.21-.93l.44-.1a1 1 0 00-.08-1.95A3.2 3.2 0 014.15 11c.18.03.36.04.55.05a1.02 1.02 0 00.98-.7 1 1 0 00-.4-1.14 3.2 3.2 0 01-1.42-2.87 13.01 13.01 0 008.21 3.48 1.02 1.02 0 00.82-.36 1 1 0 00.2-.86 3.16 3.16 0 01.86-3.01 3.23 3.23 0 014.63.07 1 1 0 00.92.3c.41-.08.81-.19 1.21-.32a6.68 6.68 0 01-1.03 1.52z"/>
    </symbol>

    <symbol id="instagram" width="24" height="24" viewBox="0 0 24 24" xmlns="http://www.w3.org/2000/svg">
        <path d="M17.34 5.46a1.2 1.2 0 100 2.4 1.2 1.2 0 000-2.4zm4.6 2.42a7.59 7.59 0 00-.46-2.43 4.94 4.94 0 00-1.16-1.77 4.7 4.7 0 00-1.77-1.15 7.3 7.3 0 00-2.43-.47C15.06 2 14.72 2 12 2s-3.06 0-4.12.06a7.3 7.3 0 00-2.43.47c-.67.25-1.27.64-1.77 1.15-.51.5-.9 1.1-1.15 1.77a7.3 7.3 0 00-.47 2.43C2 8.94 2 9.28 2 12s0 3.06.06 4.12c.02.83.18 1.65.47 2.43a4.7 4.7 0 001.15 1.77c.5.51 1.1.9 1.77 1.15.78.3 1.6.45 2.43.47C8.94 22 9.28 22 12 22s3.06 0 4.12-.06a7.3 7.3 0 002.43-.47 4.7 4.7 0 001.77-1.15c.51-.5.9-1.1 1.16-1.77.29-.78.44-1.6.46-2.43 0-1.06.06-1.4.06-4.12s0-3.06-.06-4.12zM20.14 16a5.6 5.6 0 01-.34 1.86c-.16.44-.42.83-.75 1.15a3.2 3.2 0 01-1.15.75 5.6 5.6 0 01-1.86.34 65 65 0 01-4 .06c-2.63 0-3 0-4-.06a5.73 5.73 0 01-1.94-.3 3.27 3.27 0 01-1.1-.75 3 3 0 01-.74-1.15 5.54 5.54 0 01-.4-1.9c0-1-.06-1.37-.06-4s0-3 .06-4c0-.65.12-1.3.35-1.9A3 3 0 015 5c.3-.34.68-.62 1.1-.8A5.73 5.73 0 018 3.86c1 0 1.37-.06 4-.06s3 0 4 .06c.63 0 1.26.12 1.86.34.45.17.86.44 1.19.8.33.3.58.68.75 1.1.22.6.34 1.25.34 1.9a65 65 0 01.06 4 65 65 0 01-.06 4zM12 6.87a5.13 5.13 0 10.02 10.26A5.13 5.13 0 0012 6.87zm0 8.46a3.33 3.33 0 110-6.66 3.33 3.33 0 010 6.66z"/>
    </symbol>

    <symbol id="facebook" width="24" height="24" viewBox="0 0 24 24" xmlns="http://www.w3.org/2000/svg">
        <path d="M15.12 5.32H17V2.14c-.91-.1-1.82-.14-2.74-.14-2.72 0-4.58 1.66-4.58 4.7v2.62H6.61v3.56h3.07V22h3.68v-9.12h3.06l.46-3.56h-3.52V7.05c0-1.05.28-1.73 1.76-1.73z" />
    </symbol>

    <symbol id="visits" width="21" height="21" viewBox="0 0 21 21" xmlns="http://www.w3.org/2000/svg">
        <path fill-rule="evenodd" clip-rule="evenodd" d="M10.5 10a5 5 0 100-10 5 5 0 000 10zm7.07 3.93A10 10 0 0120.5 21H.5a10 10 0 0117.07-7.07z" fill="#BB945F"/>
    </symbol>

    <symbol id="bonuses" width="20" height="21" viewBox="0 0 20 21" xmlns="http://www.w3.org/2000/svg">
        <path d="M10 0l2.22 3.31 3.66-1.3-.06 4.05 3.7 1.2-2.32 3.24 2.31 3.24-3.69 1.2.06 4.05-3.66-1.3L10 21l-2.22-3.31-3.66 1.3.06-4.05-3.7-1.2L2.8 10.5.49 7.26l3.69-1.2L4.12 2l3.66 1.3L10 0z" fill="#BB945F"/>
    </symbol>

    <symbol id="books" width="20" height="21" viewBox="0 0 20 21" xmlns="http://www.w3.org/2000/svg">
        <rect width="20" height="21" fill="#BB945F"/>
        <rect x="2" width="1" height="19" fill="#826844"/>
        <rect x="1" width="1" height="21" fill="white"/>
    </symbol>

    <symbol id="left-arrow" viewBox="0 0 8 11" fill="none" xmlns="http://www.w3.org/2000/svg">
        <path d="M7 .5l-6 5 6 5" stroke="#000"  stroke-linecap="round" stroke-linejoin="round"/>
    </symbol>

    <symbol id="right-arrow" viewBox="0 0 8 11" fill="none" xmlns="http://www.w3.org/2000/svg">
        <path d="M1 10.5l6-5-6-5" stroke="#000" stroke-linecap="round" stroke-linejoin="round"/>
    </symbol>

</svg>